<svg width="68" height="68" viewBox="0 0 68 68" fill="none" xmlns="http://www.w3.org/2000/svg">
<path d="M50.1983 52.5783C41.7506 60.7578 30.9769 64.5543 21.5547 63.6079C29.4611 62.6021 36.8138 59.0124 42.4696 53.3968C55.102 41.1655 58.4723 21.7212 47.343 12.8549C40.8944 7.71752 36.3823 10.893 26.5749 14.1273C37.7468 2.65253 47.9657 1.64753 55.6945 9.76721C66.4092 21.0238 63.637 39.5663 50.1983 52.5783Z" fill="#2A2D36"/>
<path d="M11.5528 9.37655C18.23 4.50621 26.2925 7.71955 34.4302 19.7634C26.8404 14.8133 23.4586 11.1485 17.9942 13.866C8.56355 18.5559 9.9759 35.3296 19.2259 48.3365C23.2141 54.1592 28.7435 58.7576 35.1957 61.6174C27.6394 60.1946 19.3176 54.5565 13.1319 45.8583C3.29148 32.0211 2.29608 16.1285 11.5528 9.37655Z" fill="#2A2D36"/>
<path d="M36.125 25.5V42.5H31.875V25.5H36.125Z" fill="#757575"/>
<path d="M42.5 31.875V36.125H25.5V31.875H42.5Z" fill="#757575"/>
</svg>
