<svg width="58" height="16" viewBox="0 0 58 16" fill="none" xmlns="http://www.w3.org/2000/svg">
<path d="M0.597032 15V0.94H3.31703V15H0.597032ZM2.59703 15V12.58H9.75703V15H2.59703ZM17.5528 15.22C16.5261 15.22 15.5661 15.0333 14.6728 14.66C13.7928 14.2867 13.0195 13.7733 12.3528 13.12C11.6995 12.4533 11.1861 11.68 10.8128 10.8C10.4395 9.90667 10.2528 8.95333 10.2528 7.94C10.2528 6.92667 10.4328 5.98667 10.7928 5.12C11.1661 4.24 11.6795 3.47333 12.3328 2.82C12.9995 2.15333 13.7728 1.64 14.6528 1.28C15.5328 0.906666 16.4861 0.719999 17.5128 0.719999C18.5528 0.719999 19.5128 0.906666 20.3928 1.28C21.2728 1.64 22.0395 2.15333 22.6928 2.82C23.3595 3.47333 23.8795 4.24 24.2528 5.12C24.6261 6 24.8128 6.94667 24.8128 7.96C24.8128 8.97333 24.6261 9.92 24.2528 10.8C23.8795 11.68 23.3595 12.4533 22.6928 13.12C22.0395 13.7733 21.2728 14.2867 20.3928 14.66C19.5261 15.0333 18.5795 15.22 17.5528 15.22ZM17.5128 12.68C18.4195 12.68 19.2061 12.48 19.8728 12.08C20.5395 11.68 21.0595 11.1267 21.4328 10.42C21.8195 9.71333 22.0128 8.88667 22.0128 7.94C22.0128 7.24667 21.9061 6.61333 21.6928 6.04C21.4795 5.46667 21.1728 4.97333 20.7728 4.56C20.3728 4.13333 19.8995 3.80667 19.3528 3.58C18.8061 3.35333 18.1928 3.24 17.5128 3.24C16.6328 3.24 15.8528 3.44 15.1728 3.84C14.5061 4.22667 13.9795 4.77333 13.5928 5.48C13.2195 6.18667 13.0328 7.00667 13.0328 7.94C13.0328 8.64667 13.1395 9.29333 13.3528 9.88C13.5795 10.4667 13.8861 10.9667 14.2728 11.38C14.6728 11.7933 15.1461 12.1133 15.6928 12.34C16.2528 12.5667 16.8595 12.68 17.5128 12.68ZM33.8447 15.2C32.8447 15.2 31.9047 15.02 31.0247 14.66C30.158 14.2867 29.3914 13.7667 28.7247 13.1C28.0714 12.4333 27.558 11.6667 27.1847 10.8C26.8247 9.92 26.6447 8.97333 26.6447 7.96C26.6447 6.93333 26.8314 5.98667 27.2047 5.12C27.578 4.24 28.098 3.47333 28.7647 2.82C29.4314 2.15333 30.2114 1.64 31.1047 1.28C31.998 0.906666 32.9647 0.719999 34.0047 0.719999C35.1647 0.719999 36.2314 0.939999 37.2047 1.38C38.178 1.80667 38.9847 2.41333 39.6247 3.2L37.7847 5.04C37.3447 4.46667 36.798 4.02667 36.1447 3.72C35.4914 3.41333 34.7714 3.26 33.9847 3.26C33.0914 3.26 32.298 3.46 31.6047 3.86C30.9247 4.24667 30.3914 4.79333 30.0047 5.5C29.618 6.19333 29.4247 7.00667 29.4247 7.94C29.4247 8.87333 29.6114 9.7 29.9847 10.42C30.3714 11.1267 30.8914 11.68 31.5447 12.08C32.2114 12.48 32.9714 12.68 33.8247 12.68C34.7047 12.68 35.458 12.52 36.0847 12.2C36.7114 11.8667 37.1914 11.3867 37.5247 10.76C37.858 10.12 38.0247 9.34 38.0247 8.42L39.8047 9.64L33.6647 9.58V7.22H40.8247V7.6C40.8247 9.28 40.5247 10.6867 39.9247 11.82C39.3247 12.94 38.498 13.7867 37.4447 14.36C36.4047 14.92 35.2047 15.2 33.8447 15.2ZM49.8669 15.22C48.8402 15.22 47.8802 15.0333 46.9869 14.66C46.1069 14.2867 45.3335 13.7733 44.6669 13.12C44.0135 12.4533 43.5002 11.68 43.1269 10.8C42.7535 9.90667 42.5669 8.95333 42.5669 7.94C42.5669 6.92667 42.7469 5.98667 43.1069 5.12C43.4802 4.24 43.9935 3.47333 44.6469 2.82C45.3135 2.15333 46.0869 1.64 46.9669 1.28C47.8469 0.906666 48.8002 0.719999 49.8269 0.719999C50.8669 0.719999 51.8269 0.906666 52.7069 1.28C53.5869 1.64 54.3535 2.15333 55.0069 2.82C55.6735 3.47333 56.1935 4.24 56.5669 5.12C56.9402 6 57.1269 6.94667 57.1269 7.96C57.1269 8.97333 56.9402 9.92 56.5669 10.8C56.1935 11.68 55.6735 12.4533 55.0069 13.12C54.3535 13.7733 53.5869 14.2867 52.7069 14.66C51.8402 15.0333 50.8935 15.22 49.8669 15.22ZM49.8269 12.68C50.7335 12.68 51.5202 12.48 52.1869 12.08C52.8535 11.68 53.3735 11.1267 53.7469 10.42C54.1335 9.71333 54.3269 8.88667 54.3269 7.94C54.3269 7.24667 54.2202 6.61333 54.0069 6.04C53.7935 5.46667 53.4869 4.97333 53.0869 4.56C52.6869 4.13333 52.2135 3.80667 51.6669 3.58C51.1202 3.35333 50.5069 3.24 49.8269 3.24C48.9469 3.24 48.1669 3.44 47.4869 3.84C46.8202 4.22667 46.2935 4.77333 45.9069 5.48C45.5335 6.18667 45.3469 7.00667 45.3469 7.94C45.3469 8.64667 45.4535 9.29333 45.6669 9.88C45.8935 10.4667 46.2002 10.9667 46.5869 11.38C46.9869 11.7933 47.4602 12.1133 48.0069 12.34C48.5669 12.5667 49.1735 12.68 49.8269 12.68Z" fill="white"/>
</svg>
