<svg width="160" height="164" viewBox="0 0 160 164" fill="none" xmlns="http://www.w3.org/2000/svg">
<path d="M28.6849 0.180864C28.2208 0.207231 27.748 0.327465 27.2737 0.55809L17.7734 6.74559L21.4648 14.3323L32.1963 10.6743C36.7807 8.44399 33.1673 -0.0733158 28.6849 0.180864ZM67.6823 0.180864C63.1999 -0.0733158 59.5869 8.44399 64.1709 10.6743L74.9023 14.3323L78.5938 6.74559L69.0935 0.55809C68.6189 0.327465 68.146 0.206879 67.6823 0.180864ZM13.0186 10.096L0.0195312 16.5953V18.5511C0.0195312 33.4573 5.7834 53.3424 14.4406 69.9368C18.7701 78.2337 23.8249 85.6844 29.4418 91.2078C34.1872 95.8744 39.4297 99.2631 45.0505 100.203C45.4889 123.052 51.1184 139.097 59.8256 149.437C68.8973 160.209 81.2786 164.496 93.3808 163.74C112.264 162.56 130.878 149.601 138.149 131.05C135.925 131.047 133.709 130.779 131.548 130.252C124.694 145.611 108.716 156.442 92.9867 157.425C82.5886 158.075 72.4695 154.627 64.6666 145.361C57.1896 136.482 51.817 121.982 51.38 100.191C56.9769 99.2375 62.1976 95.8565 66.9261 91.2081C72.5423 85.6851 77.5971 78.2344 81.9262 69.9375C90.5834 53.3431 96.3473 33.458 96.3473 18.5518V16.5953L83.3483 10.0956L80.5182 15.7558L89.9271 20.4611C89.4546 33.6025 84.1579 51.9787 76.3156 67.009C72.2076 74.8833 67.4186 81.8467 62.4887 86.6948C57.5584 91.5428 52.6221 94.1367 48.1836 94.1367C43.7451 94.1367 38.8088 91.5428 33.8785 86.6948C28.9486 81.8467 24.1596 74.8833 20.0516 67.0083C12.2089 51.978 6.91227 33.6029 6.43977 20.4607L15.8486 15.7558L13.0186 10.096ZM138.184 81.1288C126.108 81.1288 116.387 90.8502 116.387 102.926C116.387 115.002 126.108 124.723 138.184 124.723C150.259 124.723 159.98 115.002 159.98 102.926C159.98 90.8502 150.259 81.1288 138.184 81.1288ZM138.184 91.6757C144.359 91.6757 149.434 96.7502 149.434 102.926C149.434 109.102 144.359 114.176 138.184 114.176C132.008 114.176 126.934 109.102 126.934 102.926C126.934 96.7502 132.008 91.6757 138.184 91.6757ZM138.184 98.0038C135.427 98.0038 133.262 100.17 133.262 102.926C133.262 105.682 135.427 107.848 138.184 107.848C140.94 107.848 143.105 105.682 143.105 102.926C143.105 100.17 140.94 98.0038 138.184 98.0038Z" fill="#2A2D36"/>
</svg>
